<?xml version="1.0" standalone="no"?>
<!DOCTYPE svg PUBLIC "-//W3C//DTD SVG 20010904//EN"
 "http://www.w3.org/TR/2001/REC-SVG-20010904/DTD/svg10.dtd">
<svg version="1.0" xmlns="http://www.w3.org/2000/svg"
 width="46.080000pt" height="30.744000pt" viewBox="0 0 46.080000 30.744000"
 preserveAspectRatio="xMidYMid meet">
<metadata>
Created by potrace 1.16, written by Peter Selinger 2001-2019
</metadata>
<g transform="translate(0.000000,30.744000) scale(0.007200,-0.007200)"
fill="#000000" stroke="none">
<path d="M1903 3185 c-38 -30 -51 -34 -125 -40 -46 -3 -103 -5 -128 -3 -25 1
-146 1 -270 0 l-226 -2 -32 -65 c-31 -62 -31 -65 -10 -54 21 11 22 11 9 -4 -7
-10 -19 -17 -25 -17 -6 0 -31 -39 -54 -87 -23 -49 -36 -79 -27 -68 13 16 17
17 24 6 5 -7 14 -10 21 -6 8 5 7 12 -6 26 -16 18 -16 20 -1 37 10 10 14 22 10
25 -3 4 13 5 36 3 30 -3 44 0 48 10 3 8 10 14 16 14 5 0 3 -8 -6 -18 -10 -10
-14 -22 -10 -26 4 -4 -1 -4 -11 0 -14 5 -17 4 -12 -5 4 -6 4 -11 -1 -10 -4 1
-15 1 -23 -1 -11 -1 -9 -4 5 -11 l20 -9 -20 1 c-43 2 -51 -1 -31 -12 15 -9 16
-13 5 -20 -12 -8 -12 -11 1 -20 12 -8 10 -9 -7 -4 -14 4 -23 2 -23 -5 0 -7
-10 -9 -28 -5 -24 5 -30 2 -40 -20 -7 -15 -9 -31 -6 -37 4 -6 2 -8 -3 -5 -13
8 -26 -20 -16 -35 3 -6 1 -8 -4 -5 -13 8 -26 -20 -16 -35 3 -6 2 -8 -4 -5 -5
3 -19 -14 -31 -39 l-22 -45 47 27 c27 15 53 32 60 37 7 5 16 6 21 3 6 -3 12 3
15 14 6 23 22 26 30 6 4 -10 1 -13 -9 -9 -7 3 -14 1 -14 -4 0 -5 39 -10 88
-10 67 -1 92 3 107 15 18 16 19 16 6 0 -12 -17 -4 -18 135 -17 82 0 154 0 159
-1 22 -4 50 3 74 18 l26 16 -20 -24 -20 -23 20 8 c28 11 75 7 111 -10 20 -9
79 -16 165 -20 244 -10 310 -15 327 -24 9 -5 96 -12 192 -15 96 -4 218 -9 270
-11 216 -10 540 -17 540 -12 0 3 -24 13 -52 23 -53 18 -53 18 -22 24 18 4 60
1 95 -8 63 -14 270 -26 642 -35 126 -3 193 -9 200 -16 9 -10 -369 -11 -1629
-5 -1650 7 -1713 6 -1630 -26 14 -5 26 -16 26 -25 0 -10 10 -15 33 -15 44 0
87 -41 67 -65 -8 -10 -9 -15 -1 -15 15 0 14 -47 -1 -54 -10 -5 -10 -7 0 -12
15 -7 16 -44 0 -44 -6 0 -8 3 -5 7 4 3 -1 11 -10 18 -20 15 -82 8 -104 -11
-21 -19 -30 -18 -22 3 4 10 -5 6 -25 -12 -17 -15 -28 -33 -25 -39 4 -6 0 -5
-9 2 -14 11 -16 10 -11 -7 3 -12 9 -21 14 -21 5 0 6 -7 3 -15 -4 -8 -13 -15
-21 -15 -9 0 -13 6 -9 15 7 20 -3 47 -16 39 -5 -3 -4 -11 3 -20 8 -10 8 -14 0
-14 -11 0 -14 11 -12 40 0 10 -1 11 -5 3 -10 -22 -37 -15 -31 7 3 11 1 18 -4
14 -5 -3 -9 -15 -9 -27 0 -12 -4 -26 -8 -32 -9 -13 -42 -16 -42 -4 0 5 8 9 18
9 11 0 18 8 19 20 1 15 -4 20 -23 20 -14 0 -22 4 -19 10 3 6 1 10 -4 10 -6 0
-11 -4 -11 -10 0 -5 -10 -10 -22 -10 -21 1 -22 2 -6 14 25 18 22 29 -3 16 -11
-7 -32 -9 -45 -6 -17 5 -24 2 -24 -9 0 -18 -26 -20 -34 -2 -5 9 -7 9 -12 -1
-5 -10 -9 -10 -20 -1 -11 9 -17 9 -28 0 -11 -10 -17 -8 -25 6 -8 14 -12 16
-22 6 -10 -10 -10 -13 -1 -13 7 0 1 -12 -13 -27 -14 -15 -25 -31 -25 -35 0 -5
-5 -8 -10 -8 -7 0 -7 6 0 19 7 14 7 22 -2 27 -7 4 -8 3 -4 -4 5 -8 0 -12 -13
-12 -12 0 -21 7 -21 16 0 8 -4 13 -9 9 -5 -3 -12 -1 -16 5 -6 10 -84 8 -115
-3 -8 -3 -32 -8 -53 -12 -20 -3 -37 -10 -37 -15 0 -5 7 -7 15 -4 11 5 15 -1
15 -20 0 -14 -4 -26 -10 -26 -5 0 -10 8 -10 18 0 14 -2 15 -10 2 -6 -9 -10
-125 -10 -277 l1 -261 37 3 c20 2 75 6 122 9 162 11 225 18 237 28 7 5 9 23 6
44 -3 19 -2 34 3 34 5 0 15 10 23 23 13 20 13 21 -3 8 -29 -24 -27 -6 4 30 16
19 29 28 30 20 0 -9 10 -12 35 -9 24 3 35 0 35 -9 0 -7 4 -13 8 -13 5 0 8 -21
8 -47 -1 -46 0 -48 29 -50 17 -1 22 1 12 3 -9 3 -17 15 -17 27 0 37 16 51 54
49 40 -3 80 14 70 29 -3 6 -18 8 -32 5 -15 -3 -43 -2 -62 3 l-35 8 55 11 c75
16 237 41 283 44 35 2 37 4 37 35 0 32 1 33 22 22 14 -8 18 -14 10 -17 -6 -2
-12 -10 -12 -17 0 -10 15 -12 63 -8 34 3 63 9 64 12 2 3 56 6 120 5 65 0 188
3 273 7 85 4 379 8 653 9 l497 2 20 26 c11 13 20 19 20 12 0 -10 4 -10 18 1 9
8 24 14 32 13 8 -1 21 -2 29 -3 8 -1 11 -7 7 -18 -4 -9 -1 -20 6 -25 20 -12
102 -9 117 5 11 10 12 9 6 -2 -6 -10 -2 -11 15 -6 35 11 70 13 64 4 -3 -5 44
-9 105 -9 69 0 112 4 117 11 5 8 8 8 13 0 5 -8 66 -12 186 -12 156 -1 180 1
191 15 9 13 13 14 18 4 5 -10 7 -10 12 0 8 17 24 15 24 -2 0 -8 4 -17 9 -20 4
-3 6 7 3 22 -5 24 -4 26 11 13 10 -7 17 -10 18 -5 0 5 4 -1 9 -13 6 -14 18
-23 30 -23 14 0 19 4 14 13 -6 9 -4 9 8 -1 13 -10 19 -10 31 3 10 9 18 11 22
5 10 -15 71 -12 85 5 9 10 9 15 1 15 -6 0 -11 7 -11 15 0 8 7 15 15 15 8 0 15
6 15 13 0 6 5 4 11 -6 6 -9 15 -15 20 -12 5 4 7 11 4 16 -4 5 0 9 9 9 8 0 17
6 20 13 3 9 8 8 18 -4 7 -9 19 -14 27 -11 9 3 6 -6 -8 -27 -12 -17 -18 -31
-13 -31 6 0 12 5 14 12 3 7 11 9 24 4 18 -8 18 -8 -3 -17 -28 -10 -30 -29 -3
-30 11 -1 25 -3 30 -4 6 -1 16 -3 23 -4 6 -2 3 -6 -8 -10 -11 -5 -25 -5 -31 0
-6 5 -14 6 -17 2 -4 -3 -16 2 -27 12 -20 18 -20 17 -20 -8 0 -17 -5 -27 -15
-27 -8 0 -15 -5 -15 -11 0 -6 9 -8 20 -4 36 12 100 14 100 5 0 -14 27 -13 32
1 2 6 26 13 52 16 36 4 47 3 42 -6 -4 -6 -16 -11 -26 -11 -10 0 -22 -5 -26
-11 -4 -8 4 -9 27 -4 19 4 46 7 61 7 15 0 30 4 33 9 10 16 75 11 75 -6 0 -8 4
-15 10 -15 5 0 7 8 4 18 -5 16 -5 16 9 0 19 -24 35 -23 58 5 10 12 17 15 14 7
-4 -13 9 -15 78 -15 46 0 90 5 98 11 8 6 29 7 49 3 19 -3 28 -7 19 -8 -9 0
-19 -9 -22 -20 -3 -14 1 -19 19 -19 13 0 21 4 19 9 -3 4 12 13 34 20 23 7 37
17 35 24 -7 18 14 65 30 65 7 0 16 7 20 15 6 18 19 18 86 4 27 -6 50 -15 50
-21 0 -6 -11 -7 -26 -4 -19 5 -30 2 -41 -11 -8 -10 -12 -12 -8 -5 11 21 -9 13
-43 -19 -17 -16 -37 -27 -42 -24 -6 3 -10 2 -10 -4 0 -5 6 -12 13 -14 9 -4 8
-8 -3 -16 -13 -9 -13 -11 3 -11 9 0 17 4 17 10 0 5 13 16 29 24 26 14 30 14
46 -3 15 -18 15 -20 -2 -30 -14 -8 -15 -10 -2 -11 8 0 20 5 27 12 7 7 12 8 12
2 0 -5 9 -10 19 -10 11 0 19 3 19 6 -2 22 4 40 13 40 6 0 9 -9 6 -20 -3 -11
-1 -18 3 -15 5 3 11 2 13 -3 3 -4 43 -4 89 0 46 4 120 10 166 14 92 8 121 24
43 24 -28 0 -51 5 -51 10 0 6 -6 10 -13 10 -8 0 -24 11 -37 25 -13 14 -19 25
-13 25 6 0 13 -7 17 -15 6 -17 46 -21 46 -5 0 6 7 10 15 10 8 0 15 -4 15 -9 0
-14 37 -20 49 -8 7 7 11 7 11 1 0 -13 86 -18 94 -6 3 5 -12 8 -34 6 -22 -2
-40 1 -40 5 0 12 20 18 55 16 23 -1 31 -7 33 -24 3 -18 6 -20 18 -10 10 8 14
8 14 0 0 -7 98 -10 340 -10 324 0 341 1 350 20 8 15 6 21 -10 31 -24 15 -26
28 -5 28 8 0 15 9 15 20 0 15 7 20 29 20 37 0 42 8 35 51 -6 33 -7 34 -45 31
-36 -4 -55 11 -27 20 7 3 9 12 5 22 -4 9 -11 14 -17 11 -16 -10 -12 11 5 25 8
7 15 19 15 26 0 8 -7 14 -15 14 -20 0 -19 17 2 28 10 6 14 16 10 26 -4 10 -11
14 -17 11 -5 -3 -10 1 -10 9 0 9 -6 16 -12 17 -7 1 -2 4 11 8 34 9 39 31 7 31
-14 0 -26 5 -26 10 0 6 30 10 71 10 64 0 70 2 65 18 -4 9 -47 85 -97 167 l-90
150 -61 0 -61 0 -79 130 c-43 72 -82 130 -86 131 -4 0 -105 -99 -224 -220
-120 -122 -223 -223 -230 -224 -7 -2 -109 -13 -225 -24 -248 -24 -241 -25
-301 72 -34 55 -39 58 -92 70 -85 18 -102 21 -145 26 -22 3 -49 7 -60 10 l-20
5 20 -16 c11 -9 77 -50 148 -92 100 -59 125 -78 116 -89 -6 -7 -17 -10 -25 -7
-23 8 -17 -27 9 -48 22 -18 22 -19 2 -24 -30 -9 -28 -40 3 -54 20 -9 23 -14
12 -21 -7 -4 -19 -6 -27 -3 -24 9 -14 -31 15 -54 l27 -22 -26 -1 c-34 0 -34
-28 0 -52 l25 -17 -27 -6 c-34 -9 -34 -30 -1 -51 18 -12 22 -19 13 -25 -7 -4
-18 -5 -25 -2 -26 10 -10 -37 17 -50 19 -9 25 -17 20 -26 -6 -10 -13 -10 -28
-2 -11 5 -23 7 -27 4 -3 -3 -6 -1 -6 5 0 7 -11 12 -25 12 -16 0 -25 6 -25 16
0 12 -9 14 -42 10 -24 -2 -43 -5 -43 -6 0 -1 -7 -3 -16 -5 -31 -6 -71 -38 -58
-45 8 -6 5 -11 -10 -19 -11 -7 -21 -19 -21 -27 0 -10 -6 -14 -14 -11 -9 4 -16
-3 -20 -16 -4 -16 -8 -19 -17 -10 -6 6 -19 9 -28 6 -13 -4 -13 -3 -2 5 8 6 10
15 5 23 -5 8 -7 23 -5 33 2 15 -2 18 -18 13 -12 -3 -21 -1 -21 4 0 6 -12 -1
-27 -15 -15 -14 -30 -23 -34 -20 -5 2 -13 -4 -19 -15 -7 -13 -7 -22 0 -26 13
-8 13 -35 1 -35 -10 0 -21 27 -20 44 0 5 -5 12 -12 16 -16 11 10 39 30 32 10
-3 12 0 8 11 -4 11 1 21 13 27 12 6 20 7 20 1 0 -5 -5 -11 -11 -13 -7 -2 -10
-10 -8 -17 3 -8 15 -2 36 17 17 17 34 28 37 25 5 -5 9 10 8 27 0 3 8 6 18 7
13 1 17 -4 13 -20 -4 -18 -3 -19 6 -7 6 8 11 11 11 6 0 -5 6 -3 14 3 15 13 37
11 47 -3 4 -5 10 1 14 13 8 28 25 27 25 -1 0 -29 18 -11 22 22 2 14 9 28 17
31 11 4 11 7 0 20 -9 9 -14 39 -14 91 0 53 -4 79 -12 83 -14 5 -15 0 -13 -67
1 -29 -3 -48 -9 -48 -6 0 -11 6 -11 14 0 8 -6 16 -12 19 -9 3 -10 8 -3 18 9
12 11 32 6 77 -2 20 -21 14 -21 -8 0 -11 -4 -20 -10 -20 -5 0 -10 20 -10 44 0
41 2 44 31 50 47 9 59 7 59 -9 0 -9 -9 -15 -21 -15 -18 0 -19 -2 -9 -15 18
-22 34 -13 40 21 4 25 11 30 45 35 22 4 0 5 -50 4 -49 -2 -79 -2 -65 1 14 3
30 12 37 20 6 9 24 19 40 23 l28 9 -25 9 c-22 9 -21 11 23 17 29 4 45 11 41
18 -4 5 -20 7 -37 4 -17 -3 -28 -3 -24 0 3 3 21 9 38 13 l33 7 -83 52 c-53 34
-87 50 -94 44 -7 -5 -63 -50 -125 -100 -63 -51 -118 -89 -124 -86 -12 8 -15 5
122 116 58 47 112 94 120 104 8 10 -20 -11 -63 -46 -115 -95 -125 -102 -148
-98 -18 2 3 27 117 134 77 73 148 134 159 137 45 11 -35 6 -131 -8 -54 -8
-132 -15 -171 -15 -45 0 -73 -4 -73 -11 0 -5 -5 -7 -11 -3 -7 4 -7 9 -2 13 9
6 5 53 -24 276 l-8 60 -40 6 c-22 4 -242 8 -488 8 l-448 2 -47 34 -48 34 -49
-34 -50 -34 -420 -1 c-231 -1 -425 -1 -431 -1 -6 1 -32 17 -57 36 -25 19 -47
35 -49 34 -2 0 -22 -16 -45 -34z m-583 -75 c0 -6 -8 -10 -17 -8 -11 2 -17 -2
-15 -11 2 -9 -3 -11 -15 -7 -14 6 -15 5 -6 -5 10 -10 18 -10 40 1 34 16 83 20
83 7 0 -5 7 -4 15 3 12 10 13 15 4 20 -6 4 1 8 16 8 l27 0 -20 -21 c-13 -13
-36 -21 -64 -22 -44 -2 -98 -19 -98 -31 0 -3 12 -4 28 0 23 5 24 4 7 -5 -19
-9 -49 -58 -41 -66 2 -2 11 3 19 12 23 22 33 18 12 -5 -15 -17 -15 -20 -3 -20
8 0 23 11 34 24 10 14 22 22 27 19 4 -3 0 -11 -10 -19 -10 -7 -14 -14 -9 -14
5 0 1 -9 -9 -20 -24 -26 -11 -39 15 -15 20 18 21 18 14 0 -6 -14 -4 -16 6 -10
8 5 11 4 6 -3 -4 -6 -13 -9 -20 -6 -8 3 -17 0 -21 -6 -6 -9 -10 -9 -16 1 -6
10 -9 11 -9 2 0 -7 -12 -13 -26 -13 -14 0 -23 4 -19 10 3 6 1 10 -4 10 -20 0
-11 18 12 25 22 7 22 7 -5 18 -33 13 -35 23 -7 32 11 4 18 9 15 12 -3 3 -18
-2 -33 -12 -19 -13 -28 -15 -31 -6 -3 8 -15 5 -38 -10 -19 -11 -42 -18 -51
-15 -8 4 -23 1 -32 -5 -9 -6 1 4 22 23 37 35 45 53 28 60 -5 2 -2 10 7 18 14
13 15 12 9 -3 -6 -15 -3 -17 16 -12 19 6 20 6 6 -6 -9 -8 -19 -21 -22 -30 -4
-12 0 -15 19 -11 13 2 22 7 20 11 -2 3 1 17 8 30 10 17 15 20 21 11 5 -8 1
-16 -9 -22 -18 -10 -13 -28 10 -28 8 0 14 8 15 18 0 9 3 12 5 5 6 -13 34 -6
34 8 0 5 -8 9 -17 9 -15 0 -16 2 -3 10 10 6 11 10 3 10 -21 0 -15 26 10 43 25
18 57 22 57 7z m3931 -703 c25 -15 24 -27 -1 -27 -24 0 -23 -30 3 -58 18 -20
14 -34 -7 -26 -19 7 -13 -36 7 -51 22 -16 21 -25 -1 -25 -24 0 -23 -38 1 -55
23 -16 21 -25 -3 -25 -25 0 -22 -37 5 -56 19 -14 17 -24 -8 -28 -15 -2 -47
-30 -47 -41 0 -4 7 -4 16 -1 9 3 27 -3 42 -15 l27 -21 -50 4 c-27 3 -57 8 -66
12 -10 4 -23 1 -32 -8 -17 -17 -32 -22 -23 -7 3 5 -4 11 -16 14 -12 4 -25 1
-29 -5 -4 -6 -13 -7 -20 -4 -8 4 -3 -2 10 -13 17 -15 19 -21 8 -21 -30 0 -54
38 -48 74 1 4 -10 5 -24 2 -25 -6 -30 0 -26 32 1 6 -6 12 -16 13 -16 0 -16 1
2 9 11 4 32 6 46 3 15 -3 30 0 33 6 5 7 -5 14 -26 18 l-33 7 30 12 30 13 -48
1 c-60 0 -54 20 6 21 23 0 51 4 62 9 17 7 16 9 -10 10 -16 1 -43 1 -59 0 -18
-1 -26 2 -22 9 4 6 17 11 29 11 18 0 19 2 7 10 -8 5 -25 10 -38 10 -13 0 -20
4 -17 10 3 6 26 10 51 10 58 0 49 20 -9 21 l-42 1 33 8 c48 11 48 16 0 24 -35
6 -40 9 -26 17 10 5 28 9 40 8 13 -1 32 -1 43 0 17 1 18 3 5 11 -8 5 -26 10
-40 10 l-25 1 24 10 c14 5 31 7 39 4 23 -9 87 6 70 16 -7 5 -24 9 -37 9 -28 0
-18 15 14 23 13 3 7 5 -15 7 -33 2 -33 3 -10 10 14 4 43 9 65 9 22 1 54 8 70
15 27 11 30 11 33 -6 2 -10 12 -24 23 -31z m-4788 -164 c7 -14 -13 -74 -23
-68 -6 4 -13 -1 -16 -9 -3 -9 -16 -16 -29 -16 -22 0 -60 -32 -49 -42 3 -3 1
-9 -5 -13 -6 -3 -11 -2 -11 3 0 6 -7 13 -16 16 -14 5 -15 4 -5 -8 8 -10 9 -16
1 -21 -5 -3 -10 -12 -10 -18 0 -8 4 -7 9 2 11 17 49 22 57 9 3 -5 -2 -16 -12
-23 -11 -8 -15 -15 -10 -15 6 0 20 10 33 21 18 18 25 20 37 10 11 -9 16 -9 22
0 4 8 3 9 -4 5 -8 -5 -12 3 -12 23 0 17 5 31 10 31 6 0 9 3 8 8 -2 4 1 7 7 7
5 0 10 -8 10 -17 1 -10 -2 -18 -7 -18 -5 0 -7 -4 -4 -9 3 -4 8 -33 11 -64 l6
-55 -28 3 c-15 1 -36 6 -45 10 -12 5 -20 2 -24 -8 -3 -9 -12 -13 -20 -10 -16
6 -18 -5 -4 -27 8 -13 10 -13 10 0 0 11 3 11 12 2 10 -10 10 -15 -2 -23 -8 -5
-23 -7 -32 -5 -12 3 -18 -2 -18 -12 0 -15 -2 -15 -10 -2 -5 8 -10 11 -10 5 0
-5 -12 -18 -26 -29 -26 -18 -26 -18 -14 3 6 12 26 31 43 41 18 11 25 20 17 21
-10 0 -11 2 -2 6 6 2 12 9 12 14 0 6 -6 9 -12 8 -28 -3 -49 2 -43 11 3 5 12 7
19 4 8 -3 17 0 21 6 5 8 10 8 14 2 3 -5 15 -6 26 -1 19 7 18 8 -3 8 -15 1 -26
8 -29 21 -5 21 -23 28 -23 10 0 -7 -6 -7 -20 0 -23 12 -28 35 -6 27 8 -3 17 1
20 9 8 21 8 26 -2 20 -4 -2 -8 4 -8 15 0 10 4 19 9 19 4 0 6 4 2 10 -3 5 9 8
31 6 26 -2 37 2 41 13 3 9 7 22 9 29 3 11 7 10 20 -2 8 -9 20 -16 25 -16 14 0
11 20 -3 20 -7 1 -1 7 14 16 17 9 25 20 22 29 -6 15 11 22 19 8z"/>
<path d="M1578 1831 c11 -7 10 -9 -3 -15 -11 -4 -14 -12 -10 -26 5 -16 2 -20
-16 -20 -16 0 -19 3 -11 13 6 7 8 18 4 24 -11 17 -36 -2 -29 -21 9 -22 -6 -28
-30 -11 -14 10 -19 22 -16 35 5 18 0 20 -36 20 l-42 0 2 -56 c2 -36 -2 -59
-11 -64 -10 -6 -9 -9 1 -13 8 -3 1 -6 -16 -7 -31 -1 -77 -17 -60 -20 6 -1 20
-1 33 0 25 2 30 -17 7 -26 -35 -14 -10 -21 70 -20 l84 1 -2 30 -2 30 63 0 c61
0 62 1 62 27 0 33 10 59 20 53 4 -2 4 -23 0 -45 -7 -38 -6 -40 19 -40 26 -1
26 -1 -5 -14 -17 -8 -34 -21 -37 -29 -5 -14 5 -17 66 -19 40 -2 100 -1 134 2
35 3 72 2 83 -2 17 -6 20 -3 20 17 0 24 2 25 71 25 60 0 70 2 65 16 -4 10 -2
13 6 8 7 -5 9 -2 5 9 -4 11 -2 14 9 10 8 -3 14 1 14 9 0 12 16 16 66 17 58 1
66 0 60 -14 -3 -9 -6 -22 -6 -28 0 -7 -7 -21 -15 -31 -12 -15 -17 -17 -29 -7
-11 10 -16 9 -25 -6 -6 -10 -11 -12 -11 -5 0 18 -57 15 -64 -4 -4 -9 -4 -19
-2 -22 3 -2 51 -6 106 -8 99 -3 101 -3 98 19 -2 15 3 23 17 25 16 3 17 1 8 -8
-9 -10 -9 -16 2 -26 19 -20 59 -18 51 1 -5 15 14 20 58 16 26 -2 31 -8 18 -23
-8 -10 -1 -13 29 -15 35 -1 39 2 39 23 0 19 5 24 25 24 15 0 23 -5 20 -12 -7
-18 11 -42 24 -34 6 4 8 12 5 18 -3 5 -6 28 -6 49 1 44 -18 60 -43 39 -13 -11
-14 -10 -10 2 7 16 79 33 96 22 15 -9 6 -58 -11 -66 -8 -4 5 -6 30 -6 34 0 39
2 20 7 -17 5 -21 9 -12 15 6 4 12 4 13 -1 1 -4 4 3 8 17 7 26 36 39 52 23 5
-5 2 -19 -8 -33 -10 -14 -18 -29 -19 -35 0 -5 -2 -16 -2 -22 -1 -7 -7 -13 -13
-13 -5 0 -8 4 -5 9 3 5 -3 11 -13 14 -18 4 -31 -10 -31 -32 0 -5 38 -8 84 -9
69 0 88 3 101 18 20 22 16 69 -7 91 -27 25 -22 29 35 28 28 -1 42 -4 30 -6
-19 -4 -23 -11 -23 -39 0 -28 4 -34 18 -32 13 2 17 -4 16 -27 -1 -30 -1 -30
50 -28 28 1 68 2 88 2 30 1 37 5 41 24 4 22 4 22 6 -2 1 -21 4 -23 34 -16 17
4 47 7 65 7 17 0 32 5 32 10 0 6 -9 8 -20 5 -22 -6 -26 3 -8 21 8 8 8 15 -2
27 -9 11 -9 15 -1 15 8 0 10 8 6 20 -7 21 -3 23 48 34 24 6 26 9 16 28 -8 15
-13 17 -19 8 -5 -7 -15 -10 -25 -6 -12 4 -16 2 -12 -8 7 -18 -13 -26 -69 -26
-29 0 -43 -4 -39 -10 11 -17 -15 -40 -45 -40 -37 0 -35 34 2 38 23 3 24 5 15
26 -9 19 -20 24 -49 24 -31 1 -38 -3 -38 -19 0 -10 -7 -19 -15 -19 -13 0 -14
4 -4 23 11 20 11 21 -4 8 -11 -9 -17 -10 -17 -2 0 6 -9 11 -19 11 -14 0 -18
-5 -14 -20 5 -19 2 -20 -31 -17 -48 5 -64 20 -45 43 13 16 12 16 -6 6 -14 -7
-26 -7 -39 0 -14 8 -17 7 -12 -1 5 -7 -1 -11 -16 -12 -13 0 -17 -3 -10 -6 6
-2 12 -12 12 -20 0 -11 -4 -13 -12 -6 -7 5 -22 9 -33 9 -11 -1 -23 4 -27 9 -4
6 -8 2 -8 -7 0 -15 -9 -18 -50 -18 -41 0 -48 3 -43 16 5 13 -4 15 -68 12 -67
-3 -74 -5 -77 -25 -2 -14 3 -23 15 -26 16 -4 17 -5 1 -6 -12 -1 -18 -9 -18
-25 0 -29 -19 -44 -30 -26 -6 11 -12 10 -25 -4 -13 -13 -20 -14 -31 -5 -8 6
-14 17 -14 24 0 8 -5 15 -12 17 -6 2 -9 12 -5 21 5 14 15 16 53 10 46 -6 47
-6 41 18 -4 13 -7 27 -7 32 0 4 -4 7 -10 7 -6 0 -9 -3 -9 -7 5 -28 -4 -33 -52
-32 -46 2 -50 4 -45 23 4 17 1 22 -14 22 -21 0 -26 -11 -10 -21 17 -10 11 -25
-10 -25 -11 0 -17 5 -15 13 9 24 -11 39 -44 32 -31 -7 -42 -29 -18 -38 6 -3
-1 -6 -18 -6 -16 -1 -37 -5 -45 -10 -8 -6 -19 -7 -25 -3 -5 4 -21 7 -35 7 -18
0 -24 5 -22 18 2 10 -3 17 -12 17 -8 0 -22 10 -31 23 -13 19 -17 20 -25 7 -6
-8 -10 -10 -10 -3 0 15 -50 9 -60 -7 -6 -9 -10 -8 -17 4 -19 33 -82 -2 -83
-46 0 -9 -5 -20 -12 -24 -7 -4 -8 -3 -4 4 4 7 1 12 -8 12 -9 0 -16 -8 -16 -17
0 -15 -2 -16 -10 -3 -15 23 -12 30 10 30 23 0 28 41 8 58 -19 15 -70 6 -85
-14 -10 -14 -13 -14 -13 -3 0 19 12 35 30 42 8 3 -10 6 -40 6 -34 0 -50 -3
-42 -8z"/>
<path d="M1151 1799 c-14 -38 -74 -45 -92 -12 -10 19 -20 23 -63 23 -56 0 -68
-5 -81 -35 -8 -18 -9 -18 -13 8 -4 32 -42 40 -42 8 0 -31 -11 -51 -29 -52 -10
0 -11 -2 -3 -6 6 -2 10 -9 6 -14 -10 -17 7 -31 22 -18 11 9 14 8 14 -4 0 -11
-10 -15 -35 -15 -19 0 -37 4 -40 9 -7 10 -43 -19 -56 -46 -9 -17 -7 -17 10 3
25 29 41 28 41 -3 0 -14 4 -25 9 -25 5 0 7 8 5 18 -4 14 2 17 33 19 34 2 36 1
20 -11 -16 -13 -15 -14 13 -18 16 -3 30 -2 30 1 0 3 36 5 80 3 55 -3 80 0 80
8 0 8 14 9 45 4 38 -5 45 -4 45 10 0 11 9 16 26 16 21 0 25 -4 21 -20 -4 -15
0 -20 15 -20 15 0 19 5 15 19 -3 15 2 21 27 26 l31 8 -30 7 -30 8 33 1 c24 1
32 5 32 20 0 21 19 31 60 31 26 0 27 2 21 33 -4 17 -10 31 -14 30 -4 -2 -17
-3 -28 -3 -17 0 -20 -5 -17 -25 3 -13 2 -24 -1 -23 -20 2 -31 -4 -28 -14 1 -9
-8 -12 -27 -11 -36 3 -57 -12 -49 -35 4 -15 3 -15 -6 -2 -16 22 -14 29 14 42
14 6 25 20 25 30 0 11 -4 16 -10 13 -9 -6 -14 8 -11 28 0 4 -6 7 -14 7 -8 0
-15 -8 -15 -17 0 -15 -2 -14 -14 3 -14 18 -15 18 -25 -7z"/>
<path d="M4313 1801 c-25 -21 -90 -26 -110 -9 -8 6 -13 7 -13 1 0 -5 -13 -9
-30 -8 -16 1 -30 -2 -30 -6 0 -5 15 -8 33 -7 100 3 117 -1 117 -26 0 -50 -8
-56 -76 -56 -50 0 -66 4 -71 16 -3 9 0 20 8 25 22 14 49 11 49 -5 0 -18 38
-17 45 1 3 10 0 11 -14 3 -16 -8 -18 -7 -14 10 6 24 -6 25 -52 6 -19 -8 -35
-21 -35 -29 0 -8 -9 -17 -20 -20 -23 -6 -35 21 -26 57 5 21 1 24 -31 29 -46 8
-53 2 -55 -50 -1 -24 -6 -41 -12 -40 -6 1 -11 -5 -11 -13 0 -23 32 -24 38 0 3
13 13 20 29 20 17 0 19 -3 9 -9 -11 -7 -11 -9 0 -14 11 -4 11 -8 -3 -22 -13
-14 -38 -19 -114 -22 -116 -5 -138 -13 -35 -13 59 0 72 -3 68 -14 -4 -9 3 -16
16 -20 34 -9 37 -8 37 14 0 15 7 20 25 20 26 0 34 -15 13 -23 -10 -4 -10 -6
-1 -6 6 -1 15 4 18 9 3 6 36 11 73 11 37 1 56 3 42 6 -59 9 -68 13 -72 38 -4
21 -2 24 16 21 45 -9 76 -26 77 -43 2 -24 2 -25 -6 -45 -5 -14 -2 -18 13 -18
15 0 19 5 15 18 -3 12 1 19 11 19 11 0 14 -6 11 -17 -4 -12 3 -16 28 -18 17
-1 44 -5 59 -8 21 -4 28 -1 33 16 6 19 11 20 103 15 70 -5 92 -3 80 4 -11 8
-15 22 -13 48 2 21 0 42 -5 48 -4 5 -7 29 -7 51 2 29 -2 40 -10 37 -7 -3 -11
-9 -8 -13 4 -6 -12 -67 -18 -71 -1 0 -41 -3 -89 -5 -80 -5 -88 -4 -89 13 0 10
-2 29 -4 43 -2 19 5 31 28 48 18 12 25 22 17 22 -8 -1 -25 -9 -37 -19z"/>
<path d="M3740 1800 c-13 -8 -12 -10 3 -10 9 0 17 -4 17 -9 0 -5 -9 -7 -20 -4
-24 6 -51 -14 -48 -36 2 -13 -8 -17 -55 -19 -56 -3 -58 -2 -55 20 2 16 14 26
43 35 l40 12 -42 -1 c-24 -1 -43 -6 -43 -10 0 -4 -7 -8 -16 -8 -10 0 -14 -7
-12 -22 2 -19 -2 -24 -29 -26 -28 -3 -33 0 -33 17 0 46 -31 10 -35 -42 -2 -23
-37 -48 -51 -36 -6 5 -15 4 -22 -3 -9 -9 -12 -9 -12 2 0 12 -3 11 -16 -1 -12
-13 -24 -14 -65 -6 -51 10 -59 22 -37 57 7 10 9 22 6 25 -9 9 -79 -6 -73 -15
3 -5 14 -6 25 -3 11 3 20 0 20 -6 0 -6 -15 -11 -32 -11 -23 0 -29 -3 -19 -9 8
-5 20 -7 27 -4 6 2 15 0 19 -6 3 -6 1 -11 -4 -11 -6 0 -11 -5 -11 -11 0 -5 6
-7 13 -4 6 4 1 -3 -12 -15 -21 -18 -22 -23 -10 -31 7 -5 30 -7 49 -4 19 3 53
8 75 11 39 5 40 4 15 -10 -23 -14 -13 -15 130 -17 261 -2 283 -1 301 23 9 11
21 18 28 14 7 -5 11 2 11 21 0 22 2 25 10 13 8 -12 10 -11 10 6 0 24 17 34 56
34 26 0 47 31 26 38 -7 2 -12 11 -12 20 0 8 -3 12 -7 9 -3 -4 -13 -1 -22 6
-20 18 -54 30 -46 17 8 -12 -5 -60 -16 -60 -5 0 -9 11 -9 25 0 16 -6 25 -16
25 -9 0 -12 5 -8 12 4 6 3 8 -4 4 -5 -3 -12 -2 -14 4 -2 6 -8 6 -18 0z"/>
<path d="M5372 1675 c-24 -6 -39 -15 -35 -19 4 -5 0 -6 -10 -3 -11 4 -16 3
-12 -4 5 -7 -19 -10 -73 -8 -96 2 -106 -2 -86 -39 18 -35 18 -39 -5 -45 -24
-6 -41 10 -34 32 5 14 4 14 -12 -1 -13 -12 -24 -14 -41 -8 -16 7 -24 5 -28 -6
-5 -14 7 -18 51 -15 11 1 24 -3 28 -8 4 -7 -8 -11 -34 -11 -46 0 -61 -14 -32
-29 31 -17 65 -13 79 10 9 14 22 20 45 19 62 -4 69 -1 62 20 -4 12 0 31 8 44
13 19 28 24 88 30 40 3 79 12 87 19 8 6 17 11 19 10 1 -2 3 0 2 3 0 4 5 10 12
14 16 11 -25 8 -79 -5z"/>
<path d="M18 1392 c-16 -3 -18 -15 -16 -83 l1 -79 29 0 c15 0 28 -5 28 -11 0
-6 -8 -9 -17 -7 -11 2 -23 -6 -30 -20 -22 -41 -16 -50 31 -53 l44 -4 -1 34
c-1 18 5 38 13 45 9 6 15 28 15 51 l0 40 92 0 c50 0 95 3 99 8 4 4 -15 7 -42
7 -27 0 -44 4 -39 8 9 6 16 62 8 62 -19 0 -39 -27 -35 -46 3 -15 0 -24 -8 -24
-9 0 -11 10 -7 33 5 31 3 33 -24 35 -16 1 -29 -2 -29 -8 0 -5 -4 -10 -10 -10
-5 0 -10 7 -10 15 0 8 -4 15 -10 15 -19 0 -10 -31 11 -38 17 -7 18 -10 7 -19
-25 -22 -73 0 -80 35 -2 11 -10 16 -20 14z"/>
<path d="M428 1382 c-31 -8 -58 -27 -63 -43 -3 -10 -15 -21 -25 -24 -11 -3
-19 -9 -18 -13 1 -4 -2 -24 -6 -44 -6 -29 -13 -38 -28 -38 -17 0 -20 5 -16 31
l5 31 -18 -23 c-16 -21 -19 -22 -19 -5 0 12 -5 16 -16 12 -9 -3 -18 -6 -20 -6
-2 0 -4 -6 -4 -13 0 -17 -36 -38 -55 -31 -8 4 -15 1 -15 -6 0 -7 -6 -10 -13
-7 -8 3 -12 -5 -11 -24 2 -51 4 -55 15 -36 10 17 11 17 23 1 11 -15 12 -13 8
15 -4 27 -2 30 14 25 32 -12 34 -15 24 -34 -13 -25 11 -44 50 -38 17 3 33 1
36 -4 10 -15 101 -9 108 7 3 8 10 15 15 15 6 0 8 -7 5 -15 -9 -22 46 -16 69 6
24 25 21 30 -10 23 l-28 -7 20 24 c28 34 38 40 47 26 14 -22 9 -67 -8 -67 -8
0 -12 -5 -9 -10 4 -6 13 -7 24 -1 13 7 16 19 13 44 -5 41 8 52 59 48 37 -2 37
-1 26 24 -8 17 -13 20 -15 10 -6 -25 -22 -17 -22 11 0 19 4 25 14 21 10 -4 16
2 18 16 2 17 12 23 38 27 22 3 36 11 38 21 2 12 -4 15 -23 12 -13 -3 -30 -11
-36 -19 -6 -8 -21 -13 -33 -13 -17 1 -17 2 -3 6 21 5 22 17 2 33 -8 7 -12 16
-9 21 3 5 -5 10 -18 11 -46 3 -118 3 -130 0z"/>
<path d="M750 1377 c-17 -6 -30 -22 -36 -43 -6 -19 -7 -34 -3 -34 5 0 9 -4 9
-10 0 -5 -11 -10 -24 -10 -25 0 -36 -16 -36 -55 0 -14 -7 -25 -17 -28 -17 -4
-17 -5 0 -6 15 -1 17 -7 11 -51 -8 -60 10 -70 20 -10 3 22 11 40 17 40 5 0 7
-4 4 -10 -3 -5 -2 -10 3 -10 6 0 12 7 16 15 3 8 17 15 30 15 25 0 25 0 11 41
-20 55 -19 62 5 54 14 -4 20 -2 18 6 -2 7 8 16 22 20 21 6 22 7 5 8 -34 3 -55
24 -41 42 6 9 18 18 25 21 13 4 13 5 0 9 -7 3 -25 1 -39 -4z"/>
<path d="M1039 1280 c0 -3 -3 -22 -5 -44 -3 -21 -5 -41 -6 -45 -3 -28 5 -41
25 -42 12 0 16 -3 9 -6 -7 -3 -17 -16 -22 -29 -13 -32 -32 -31 -24 1 8 31 -8
33 -36 5 -20 -20 -20 -20 -20 0 0 13 9 22 25 26 14 3 25 10 25 15 0 6 -8 5
-19 -1 -11 -5 -34 -10 -51 -10 -31 0 -31 0 -28 -47 3 -43 5 -46 33 -48 17 -2
47 -6 68 -10 44 -9 72 10 82 56 4 16 11 29 17 29 6 0 3 9 -7 20 -10 11 -24 20
-30 20 -15 0 -27 42 -19 64 4 10 18 16 37 16 38 0 31 9 -9 12 -16 1 -32 7 -36
13 -4 5 -8 8 -9 5z"/>
<path d="M1886 816 c7 -18 -76 -32 -87 -15 -5 8 -14 6 -30 -10 -22 -21 -22
-21 -2 -21 21 0 25 -14 10 -37 -12 -19 -1 -31 36 -38 33 -7 97 -45 97 -57 0
-5 -7 -8 -15 -8 -8 0 -15 -4 -15 -9 0 -5 -15 -19 -34 -32 -30 -21 -33 -25 -25
-53 11 -39 12 -36 -7 -36 -8 0 -13 4 -10 8 3 5 -1 9 -9 9 -8 0 -11 -5 -8 -10
4 -6 -4 -7 -19 -4 -15 4 -32 1 -44 -7 -19 -14 -19 -14 1 -13 11 1 19 -3 18 -9
-3 -16 70 -26 192 -25 103 1 120 3 163 24 26 12 30 32 5 23 -15 -5 -15 -4 1 9
11 8 23 15 28 15 4 0 8 7 8 15 0 8 4 15 8 15 4 0 8 9 9 19 1 14 -3 18 -13 14
-8 -3 -13 -11 -12 -17 3 -12 -3 -16 -23 -16 -8 0 -8 4 -1 13 8 10 6 13 -8 14
-12 1 -17 -3 -14 -12 3 -7 1 -16 -4 -19 -6 -3 -12 1 -16 9 -3 8 -14 15 -25 15
-11 0 -23 5 -26 10 -4 7 3 9 22 5 15 -3 22 -2 15 1 -6 3 -9 11 -5 17 13 21 12
37 -3 37 -8 0 -14 -4 -14 -10 0 -5 5 -10 11 -10 5 0 7 -4 4 -10 -3 -5 -33 -10
-66 -10 -33 0 -59 4 -59 10 0 6 7 11 15 11 8 1 20 3 25 4 6 1 17 3 25 4 8 0
15 5 15 10 0 14 -37 20 -51 7 -9 -7 -8 -5 1 7 8 11 21 16 32 13 12 -3 18 0 15
7 -2 7 -15 12 -30 12 -40 1 -42 12 -2 13 19 1 37 -3 40 -8 8 -12 25 -13 25 -1
0 8 -24 17 -74 27 -10 2 -21 6 -25 10 -3 4 2 5 11 1 10 -3 19 0 22 9 9 24 7
27 -10 20 -14 -5 -16 -1 -11 22 5 24 2 31 -19 41 -33 15 -45 14 -38 -3z"/>
<path d="M6048 688 c-23 -20 -23 -20 -3 -35 15 -12 16 -14 3 -10 -9 3 -22 -1
-30 -10 -11 -15 -11 -16 5 -10 10 4 17 2 17 -6 0 -8 3 -8 9 2 5 7 14 10 20 6
17 -10 -17 -34 -40 -28 -11 3 -20 -3 -25 -19 -4 -12 -7 -26 -6 -30 1 -4 -7
-12 -18 -18 -15 -8 -20 -8 -20 1 0 7 -9 6 -25 -5 -28 -18 -35 -20 -35 -7 0 5
15 14 33 21 54 22 58 28 32 54 -29 29 -52 38 -61 24 -4 -6 -3 -8 4 -4 15 9 23
-7 12 -24 -5 -9 -5 -19 2 -27 12 -15 12 -15 -20 -18 -17 -2 -20 1 -13 8 17 17
13 24 -11 23 -28 -3 -50 12 -41 28 3 6 0 5 -8 -3 -11 -10 -11 -15 -1 -18 6 -3
12 -11 12 -19 0 -12 4 -13 23 -3 20 11 21 11 8 -5 -9 -11 -24 -16 -38 -13 -18
3 -23 1 -19 -10 3 -8 6 -18 6 -21 0 -4 5 0 10 8 8 12 10 12 10 1 0 -11 3 -11
15 -1 13 11 14 10 9 -4 -4 -10 -1 -16 8 -16 9 0 13 -10 12 -27 -2 -42 -3 -45
-15 -38 -6 4 -8 13 -5 21 6 16 -3 44 -14 44 -5 0 -6 -8 -3 -19 6 -25 -17 -39
-29 -17 -5 9 -16 16 -23 16 -9 0 -15 10 -15 26 0 15 -4 23 -11 19 -6 -4 -8
-13 -5 -21 3 -8 -1 -14 -12 -15 -11 -1 -8 -4 8 -9 14 -4 20 -8 14 -9 -7 -1
-14 -10 -17 -22 -8 -30 -27 -14 -27 23 0 23 -4 29 -16 24 -8 -3 -12 -2 -9 3 3
5 1 12 -5 16 -5 3 -10 1 -10 -4 0 -6 -7 -11 -15 -11 -8 0 -15 7 -15 15 0 11
-9 15 -30 13 -16 -1 -30 -6 -30 -11 0 -5 10 -5 23 -2 22 7 22 7 2 -8 -11 -8
-23 -13 -27 -11 -4 2 -9 0 -13 -5 -3 -6 16 -9 50 -6 51 3 55 2 50 -16 -4 -11
-2 -19 4 -19 6 0 11 5 11 10 0 6 5 10 12 10 6 0 8 -3 5 -7 -4 -3 -2 -12 4 -20
9 -10 7 -13 -9 -13 -11 0 -23 -7 -26 -16 -5 -12 -2 -15 10 -10 14 5 15 4 4 -9
-7 -8 -16 -12 -21 -9 -5 3 -9 -2 -9 -10 0 -8 -5 -18 -12 -22 -7 -5 -8 -3 -4 5
5 7 0 21 -11 33 -18 20 -18 21 7 14 21 -6 22 -5 7 4 -9 6 -21 9 -26 5 -5 -3
-11 1 -14 7 -2 7 -8 10 -12 6 -5 -5 0 -17 10 -28 17 -18 17 -20 2 -14 -9 3
-17 10 -17 15 0 5 -4 9 -10 9 -5 0 -10 -11 -10 -24 0 -28 -15 -42 -26 -24 -4
6 -2 14 4 16 7 2 12 17 12 33 0 18 -4 28 -10 24 -5 -3 -10 -15 -10 -26 0 -13
-4 -18 -12 -13 -8 5 -9 2 -5 -9 3 -10 2 -17 -3 -17 -6 0 -9 -3 -9 -7 4 -23 -3
-30 -26 -25 -19 3 -27 -1 -34 -19 -5 -13 -7 -27 -4 -31 2 -5 0 -8 -6 -8 -13 0
-2 61 14 77 10 9 15 9 25 0 10 -10 12 -8 7 5 -3 9 -1 19 6 21 7 2 9 8 5 12 -4
4 -15 2 -23 -5 -14 -11 -17 -10 -22 9 -5 21 -6 21 -25 5 -14 -14 -16 -19 -6
-26 10 -6 9 -8 -3 -8 -12 0 -16 -9 -15 -36 1 -41 38 -86 63 -77 8 3 19 0 24
-8 7 -11 9 -11 9 4 0 9 5 17 11 17 6 0 9 -9 6 -20 -4 -15 0 -20 13 -20 10 0
27 -3 37 -7 15 -5 16 -4 6 8 -9 12 -4 14 30 16 31 1 38 -1 27 -8 -12 -8 -10
-10 8 -6 12 3 22 1 22 -4 0 -5 4 -9 9 -9 5 0 2 14 -6 32 -12 23 -13 33 -5 36
7 2 10 7 8 11 -3 4 1 8 9 8 8 0 12 -4 9 -8 -2 -4 0 -11 6 -14 6 -4 9 -1 8 6
-2 7 8 18 21 25 26 13 55 8 45 -8 -4 -6 -9 -6 -14 2 -5 8 -12 7 -24 -5 -14
-15 -14 -35 0 -35 3 0 2 5 -1 10 -9 14 8 13 23 -2 9 -9 12 -9 12 1 0 7 5 9 10
6 6 -4 8 -11 5 -16 -4 -5 -2 -9 4 -9 6 0 8 12 5 30 -5 21 -3 30 7 31 8 1 21 2
29 3 16 1 21 32 8 58 -5 11 -3 18 8 22 11 4 15 2 11 -8 -3 -8 0 -13 8 -12 20
3 31 16 14 16 -8 1 2 8 21 16 30 13 33 17 18 25 -21 11 -24 44 -6 55 23 14 63
13 74 -1 10 -13 13 -13 25 2 8 9 9 14 2 10 -6 -4 -14 -3 -17 2 -4 5 -1 13 5
16 5 4 8 13 5 21 -3 8 0 11 10 7 7 -3 14 -12 14 -19 0 -8 7 -17 16 -21 13 -5
12 -8 -5 -24 -11 -11 -25 -19 -30 -19 -6 0 -8 -7 -5 -15 4 -8 17 -15 31 -15
13 0 21 -4 18 -10 -3 -5 -1 -10 4 -10 6 0 11 5 11 11 0 5 5 7 10 4 8 -5 7 -11
-1 -21 -10 -12 -9 -13 5 -8 9 3 16 1 16 -5 0 -6 7 -8 15 -5 12 5 13 10 4 20
-9 11 -8 14 4 14 19 0 36 29 29 49 -3 8 1 12 9 9 8 -3 20 2 27 11 10 14 11 13
5 -4 -3 -11 -11 -24 -17 -28 -7 -5 -3 -7 8 -5 25 4 29 46 7 72 -12 14 -13 20
-3 23 13 5 7 23 -9 23 -6 0 -8 -4 -4 -9 3 -6 -2 -14 -11 -19 -11 -6 -15 -17
-11 -31 3 -15 -1 -24 -14 -32 -15 -7 -17 -14 -10 -27 8 -15 5 -18 -17 -16 -15
1 -30 2 -34 3 -13 2 -9 29 7 45 8 8 11 17 6 20 -5 4 -11 2 -13 -3 -1 -5 -11
-4 -21 4 -15 11 -16 17 -8 33 9 18 8 21 -12 25 -19 4 -19 4 5 6 15 0 33 10 41
22 9 12 18 16 21 10 4 -5 2 -12 -4 -16 -6 -4 -7 -11 -4 -17 5 -7 1 -9 -9 -5
-10 3 -17 2 -17 -2 0 -15 28 -20 39 -7 6 7 8 15 5 19 -3 3 4 3 17 0 15 -4 20
-3 15 5 -4 7 -3 12 2 12 6 0 13 7 16 16 4 12 2 15 -9 10 -8 -3 -15 0 -15 6 0
6 -6 5 -17 -3 -15 -12 -16 -12 -10 4 4 11 10 31 13 45 l5 27 -18 -27 c-10 -16
-21 -28 -26 -28 -4 0 0 11 9 25 9 14 15 25 13 26 -31 6 -42 4 -61 -13z"/>
<path d="M5225 670 c-3 -5 -12 -7 -19 -4 -18 7 -41 -22 -25 -32 8 -5 9 -3 4 6
-6 10 -1 12 23 7 20 -4 32 -2 35 6 3 7 9 1 15 -13 5 -14 6 -26 1 -28 -11 -5
16 -32 32 -32 8 0 8 -4 -1 -15 -11 -14 -14 -14 -24 0 -10 14 -13 14 -31 1 -20
-15 -20 -15 0 -17 11 -1 30 -1 43 -1 14 1 22 -4 19 -11 -2 -7 -17 -11 -37 -9
-21 2 -30 0 -25 -7 3 -6 10 -9 14 -7 4 3 13 1 21 -4 9 -5 19 -5 26 1 9 7 19 6
33 -3 11 -7 24 -8 28 -4 4 5 2 11 -4 13 -7 3 -13 9 -13 14 0 6 5 7 10 4 14 -8
13 8 -1 22 -18 18 -1 33 26 23 16 -6 27 -6 31 2 5 7 12 5 22 -8 10 -13 16 -15
19 -6 3 6 10 9 15 5 7 -4 9 2 5 16 -4 17 -2 21 12 16 20 -6 56 28 46 44 -10
17 -38 13 -32 -3 8 -21 -21 -28 -32 -8 -7 12 -10 13 -11 3 0 -7 -6 -11 -15 -7
-9 3 -15 0 -15 -9 0 -8 5 -14 11 -13 6 2 13 -2 15 -7 3 -7 -12 -11 -35 -11
-22 0 -38 3 -35 8 3 4 -3 8 -13 9 -10 0 -13 3 -5 6 16 6 15 20 -3 27 -8 3 -14
2 -13 -2 3 -14 -14 -42 -23 -36 -5 3 -9 0 -9 -5 0 -6 -6 -11 -14 -11 -8 0 -13
8 -11 18 1 9 11 17 22 16 12 0 20 7 21 20 1 15 -1 17 -7 7 -5 -8 -14 -10 -21
-6 -10 6 -8 12 6 23 18 14 18 14 1 8 -10 -3 -23 -6 -28 -6 -6 0 -8 -10 -4 -22
5 -19 3 -18 -10 5 -16 28 -30 34 -40 17z"/>
<path d="M4438 568 c17 -17 15 -41 -3 -34 -17 6 -20 -9 -4 -20 7 -4 16 1 21
10 5 9 14 14 19 10 6 -4 6 -11 -2 -20 -8 -10 -9 -18 -2 -25 16 -16 4 -51 -16
-44 -8 3 -12 3 -9 -1 4 -3 -1 -14 -12 -23 -17 -14 -17 -18 -4 -29 12 -11 15
-10 21 3 5 13 7 14 14 3 17 -26 10 -46 -13 -42 -13 2 -17 1 -10 -2 10 -5 10
-9 1 -20 -12 -15 0 -18 49 -14 21 1 21 0 10 -26 -10 -21 -14 -24 -16 -11 -4
22 -40 22 -64 0 -17 -15 -20 -15 -28 -3 -6 8 -10 11 -10 7 0 -12 -23 14 -39
45 -8 16 -11 34 -6 45 5 10 7 24 6 32 -1 7 2 10 8 6 14 -8 35 -46 24 -43 -9 3
-13 -5 -13 -28 0 -8 5 -12 10 -9 6 4 8 11 5 16 -4 5 -1 9 6 9 8 0 9 11 5 33
-3 17 -2 26 2 20 6 -9 12 -8 24 7 16 18 16 19 -2 25 -11 4 -24 3 -30 0 -19
-12 -10 11 10 25 23 17 27 42 5 34 -8 -4 -15 -1 -15 5 0 6 7 11 15 11 8 0 15
5 15 11 0 6 -9 8 -22 3 -21 -6 -22 -6 -8 12 14 17 14 18 -2 6 -9 -8 -21 -11
-26 -8 -6 3 -12 -3 -15 -14 -3 -11 -11 -20 -19 -20 -8 0 -9 3 -3 8 6 4 11 13
13 21 2 11 0 12 -11 3 -8 -7 -16 -10 -19 -7 -2 3 -5 -2 -5 -10 0 -8 5 -15 10
-15 5 0 5 -6 -2 -13 -8 -10 -7 -14 4 -14 8 0 12 4 9 9 -5 7 10 11 21 6 2 -2
11 6 19 17 15 19 15 19 16 -7 0 -20 -5 -28 -17 -28 -10 0 -14 -4 -8 -8 12 -8
16 -44 5 -37 -10 6 -24 -25 -21 -45 2 -8 0 -12 -4 -8 -3 3 -8 14 -9 23 -3 23
-22 33 -51 27 -21 -3 -23 -7 -14 -23 8 -15 6 -19 -8 -19 -17 -1 -17 -1 0 -14
20 -15 31 -56 16 -56 -5 0 -13 10 -18 22 -7 19 -8 19 -14 4 -4 -10 -11 -15
-16 -11 -5 3 -12 1 -16 -5 -3 -5 -17 -10 -30 -10 -22 0 -24 3 -15 25 8 20 6
25 -6 25 -10 0 -14 -6 -11 -15 4 -8 2 -17 -4 -21 -6 -3 -8 -12 -5 -20 3 -8 0
-11 -10 -7 -7 3 -14 0 -14 -7 0 -7 -8 -9 -21 -5 -20 7 -21 5 -15 -21 10 -38
15 -42 27 -21 13 22 44 23 35 1 -4 -12 -2 -15 9 -10 8 3 15 1 15 -4 0 -6 -6
-11 -12 -12 -7 0 -17 -2 -23 -2 -32 -4 -50 -56 -24 -71 5 -4 9 -14 7 -23 -4
-18 -69 -25 -80 -8 -5 6 -8 3 -8 -9 0 -14 -7 -21 -19 -21 -15 0 -17 3 -9 13 8
10 5 13 -12 13 -27 0 -22 -21 9 -36 18 -9 19 -13 7 -17 -9 -4 -16 -13 -16 -21
0 -8 -6 -17 -12 -19 -10 -4 -9 -8 2 -16 19 -14 33 -14 25 -1 -3 6 -1 10 4 10
6 0 11 -4 11 -10 0 -5 5 -10 10 -10 6 0 10 9 10 20 0 11 -7 20 -15 20 -8 0
-15 3 -15 6 0 3 7 12 15 20 13 14 15 13 15 -7 0 -18 2 -19 15 -9 10 9 15 9 15
1 0 -6 7 -11 15 -11 8 0 15 5 15 10 0 6 -5 10 -11 10 -5 0 -7 5 -3 11 4 7 14
1 27 -15 16 -21 24 -23 40 -15 14 8 23 7 34 -4 13 -12 13 -15 -2 -21 -9 -3
-13 -2 -10 4 3 6 0 10 -8 10 -28 0 -26 -25 2 -27 36 -2 44 17 18 46 l-22 24
23 -12 c18 -10 22 -9 22 4 0 8 7 15 15 15 8 0 15 5 15 11 0 8 5 8 15 -1 8 -7
15 -18 15 -24 0 -6 -5 -4 -11 4 -9 12 -10 11 -6 -7 3 -13 1 -26 -4 -29 -5 -3
-9 -13 -9 -22 0 -14 2 -13 14 3 7 11 18 34 24 50 6 17 11 23 11 13 1 -10 8
-18 16 -18 8 0 21 -13 30 -30 13 -26 21 -30 56 -30 32 0 39 3 31 12 -11 14 0
52 17 63 13 8 15 -17 2 -31 -5 -5 -5 -18 -1 -29 l9 -20 1 20 c2 11 2 23 1 28
0 4 6 7 15 7 9 0 12 -5 8 -12 -4 -7 -3 -8 4 -4 19 12 14 36 -5 29 -14 -5 -15
-3 -6 7 8 9 19 10 38 3 24 -8 26 -11 13 -24 -8 -8 -13 -20 -12 -27 1 -7 0 -8
-2 -3 -6 11 -44 2 -44 -11 0 -5 36 -7 79 -6 44 2 75 5 71 8 -5 3 -5 12 0 20 6
8 10 11 11 5 0 -5 5 -1 10 10 7 16 9 14 6 -13 -2 -17 0 -32 5 -32 4 0 8 5 8
10 0 6 8 10 18 10 14 0 15 -2 2 -10 -12 -8 -10 -10 8 -10 13 0 20 4 17 10 -3
6 0 10 9 10 8 0 17 -6 20 -12 2 -7 4 -3 2 9 -3 29 -13 38 -28 26 -11 -8 -20
-9 -44 -4 -4 0 -1 8 6 16 23 27 -29 18 -53 -10 l-22 -25 -18 25 c-10 14 -14
25 -9 25 6 0 13 -7 16 -16 5 -13 9 -14 21 -4 8 7 15 19 15 27 0 11 7 14 23 9
12 -3 30 -6 41 -6 13 0 17 -5 13 -20 -3 -11 -1 -18 4 -14 5 3 9 12 9 20 0 8 5
14 10 14 6 0 10 -8 10 -17 0 -12 3 -14 10 -7 14 14 1 46 -17 40 -10 -4 -11 -1
-4 12 5 9 7 36 6 60 -3 34 -1 42 10 38 21 -8 26 8 10 30 -12 15 -16 16 -23 6
-7 -11 -11 -10 -16 3 -3 10 -2 23 4 30 8 9 6 14 -4 18 -10 4 -13 1 -9 -9 4
-10 0 -12 -11 -8 -9 3 -16 1 -16 -6 0 -6 5 -8 10 -5 12 8 13 -5 0 -25 -6 -9
-3 -24 7 -45 30 -57 31 -62 22 -76 -7 -12 -9 -12 -9 1 0 13 -2 13 -9 0 -6 -8
-8 -17 -6 -20 5 -8 -27 -6 -41 3 -6 3 -10 22 -9 42 0 19 -2 35 -6 35 -4 0 -9
6 -12 14 -4 10 0 14 13 13 10 -1 17 -4 15 -7 -2 -3 3 -14 11 -25 13 -18 14
-14 10 35 -2 30 -7 64 -12 74 -7 19 -8 19 -14 0 -6 -16 -9 -13 -20 19 -8 20
-18 37 -23 37 -4 0 -5 -4 -2 -10 3 -5 8 -20 10 -32 4 -21 3 -22 -9 -5 -13 16
-15 16 -30 2 -9 -9 -16 -21 -16 -26 0 -13 18 -11 23 4 4 9 6 9 6 -1 1 -7 5
-11 10 -7 6 3 15 -4 21 -15 9 -17 8 -20 -10 -20 -12 0 -18 5 -15 10 3 6 1 10
-4 10 -6 0 -11 -5 -11 -11 0 -6 -9 -8 -22 -4 l-23 7 23 -17 c14 -10 22 -27 23
-48 1 -18 5 -43 9 -57 l8 -25 1 28 c1 19 6 27 19 27 15 0 15 -2 2 -11 -13 -9
-12 -10 3 -5 20 6 23 -9 5 -21 -7 -4 -13 -15 -13 -23 0 -10 -8 -14 -25 -11
-14 3 -35 5 -47 5 -13 1 -23 5 -23 9 0 5 -5 5 -12 1 -8 -5 -9 -2 -5 10 4 10 7
20 7 22 0 2 7 4 15 4 8 0 15 7 15 16 0 8 -4 12 -10 9 -6 -4 -10 5 -10 20 0 16
-4 24 -11 19 -6 -3 -8 -15 -6 -26 5 -17 2 -19 -19 -15 -17 3 -24 0 -21 -7 3
-8 -4 -12 -17 -12 -11 1 -20 -4 -19 -11 2 -7 -3 -10 -11 -7 -8 3 -16 0 -19 -8
-2 -7 -3 0 -1 15 3 20 0 27 -9 24 -6 -2 -11 -16 -9 -31 1 -14 -2 -26 -7 -26
-6 0 -8 6 -5 14 3 8 1 17 -5 21 -6 3 -11 0 -11 -8 0 -8 -7 -17 -15 -21 -8 -3
-15 -1 -15 4 0 6 5 10 11 10 5 0 7 4 4 10 -3 5 -1 19 5 30 8 15 17 19 35 14
23 -6 24 -4 16 35 -1 2 -8 -2 -16 -9 -10 -9 -15 -9 -15 -1 0 6 4 11 10 11 5 0
2 15 -7 34 -10 21 -21 32 -29 29 -8 -3 -14 0 -14 6 0 6 5 11 11 11 8 0 8 4 0
14 -7 9 -8 17 -2 20 5 3 12 0 15 -6 3 -9 10 -7 22 7 16 20 16 20 11 -2 -3 -12
-2 -21 2 -20 3 1 19 -7 34 -18 23 -15 33 -16 48 -7 15 10 17 9 13 -3 -4 -8
-15 -15 -25 -15 -22 0 -25 -13 -6 -28 8 -7 18 -7 27 -2 12 8 11 10 -5 10 -18
1 -18 2 3 11 13 5 29 6 34 2 7 -3 8 -1 4 5 -4 7 -2 12 3 12 6 0 11 -7 11 -15
0 -8 -6 -15 -13 -15 -7 0 -18 -9 -25 -20 -6 -11 -17 -17 -24 -15 -12 5 -43
-44 -34 -53 3 -2 16 7 30 21 14 15 26 23 26 19 0 -4 6 1 13 10 11 14 22 16 56
9 2 -1 -1 -7 -7 -14 -7 -8 -6 -17 3 -30 11 -16 13 -14 17 18 3 27 0 36 -14 41
-10 3 -18 10 -18 16 0 22 24 78 33 78 5 0 7 7 3 15 -3 9 0 15 9 15 7 0 17 4
20 10 7 11 -23 2 -42 -13 -9 -6 -13 -5 -13 3 0 9 -3 10 -14 1 -11 -9 -12 -6
-8 14 3 16 11 25 23 25 22 0 34 16 17 23 -9 4 -8 6 3 6 8 1 20 -4 27 -11 9 -9
15 -9 25 1 6 7 8 12 2 11 -20 -4 -35 0 -35 10 0 6 7 10 15 10 8 0 15 7 15 15
0 8 -3 15 -6 15 -3 0 -12 -7 -20 -15 -9 -8 -21 -15 -27 -15 -7 0 2 11 18 25
18 15 26 28 20 32 -5 5 -10 15 -10 23 0 8 -7 15 -15 15 -8 0 -21 6 -28 13 -8
7 -18 10 -22 7 -5 -3 -15 3 -22 15 -7 11 -17 20 -22 20 -6 0 -5 -5 2 -12z"/>
<path d="M3940 492 c0 -7 -6 -12 -13 -12 -8 0 -14 -8 -14 -17 1 -66 -4 -113
-11 -109 -4 2 -9 -7 -10 -21 -3 -36 -8 -39 -22 -13 -9 16 -9 25 1 36 6 8 8 18
4 22 -4 4 -10 1 -12 -6 -3 -6 -10 -9 -16 -5 -7 4 -8 0 -3 -13 13 -33 12 -39
-6 -38 -10 1 -18 -3 -18 -9 0 -6 -7 -2 -15 9 -13 18 -14 18 -8 -5 4 -14 2 -22
-3 -18 -6 3 -15 -3 -22 -14 -8 -12 -9 -19 -1 -19 5 0 7 -5 4 -10 -4 -6 -11 -8
-16 -5 -5 3 -6 -1 -3 -9 4 -11 0 -13 -15 -9 -12 3 -18 10 -14 17 3 6 -3 3 -14
-6 -11 -10 -22 -18 -25 -18 -6 0 -21 41 -19 53 1 5 -6 7 -16 5 -14 -2 -18 -12
-17 -38 3 -55 4 -57 19 -25 14 31 16 29 19 -17 1 -17 -3 -28 -11 -28 -7 0 -13
-8 -14 -17 -1 -12 -4 -10 -9 7 l-8 25 -1 -25 c-1 -15 -7 -32 -13 -40 -11 -12
-10 -12 5 -1 9 7 17 10 17 6 0 -4 6 -2 14 4 7 6 21 9 29 5 23 -8 50 19 34 35
-8 8 -8 11 2 11 8 0 20 8 27 17 12 16 13 14 8 -17 -3 -19 -2 -31 2 -27 4 4 9
22 10 40 1 17 3 36 3 40 1 5 6 5 12 1 6 -3 9 -19 7 -35 -3 -20 0 -29 9 -29 8
0 12 4 9 9 -4 5 0 12 6 14 10 4 10 6 0 6 -18 1 -5 21 14 21 13 0 12 -4 -1 -30
-9 -18 -11 -30 -5 -30 6 0 15 10 20 22 8 21 9 21 9 3 1 -23 -34 -50 -44 -35
-9 15 -27 1 -21 -16 3 -8 0 -11 -10 -7 -9 3 -14 -1 -14 -12 0 -10 -5 -14 -12
-9 -7 4 -4 -2 6 -15 19 -21 19 -22 -2 -37 -12 -8 -22 -20 -22 -26 0 -6 7 -5
17 3 15 13 15 12 4 -9 -6 -12 -8 -22 -2 -22 5 0 12 8 16 18 7 16 8 15 15 -3 6
-13 9 -15 9 -5 0 8 -3 21 -8 29 -12 19 -2 44 13 32 13 -10 56 3 56 18 0 5 3
18 6 28 3 10 -2 5 -11 -10 -12 -22 -19 -26 -29 -17 -8 5 -22 7 -31 3 -13 -4
-16 -3 -11 5 4 7 19 12 34 13 24 0 25 1 7 9 -13 6 -15 9 -5 9 8 1 27 7 42 15
16 8 28 10 30 4 4 -11 50 26 48 38 -1 5 3 10 9 12 6 2 11 -2 11 -8 0 -7 6 -5
16 4 8 9 13 20 10 24 -3 5 5 7 19 4 21 -4 24 -1 21 24 -2 16 -5 30 -6 32 -3 2
-4 7 -16 41 -7 23 -8 24 -15 5 -7 -17 -8 -17 -8 -1 -1 12 -5 16 -13 10 -7 -4
-20 -8 -28 -8 -8 0 -13 -7 -12 -15 2 -8 0 -11 -4 -7 -13 13 -13 35 1 41 9 3
11 18 8 50 -4 33 -2 46 7 46 7 0 10 6 7 14 -3 7 0 19 6 25 6 6 8 14 4 18 -4 3
-7 1 -7 -5z"/>
<path d="M5216 485 c-11 -8 -15 -15 -9 -15 5 0 10 -14 11 -31 1 -24 -2 -28
-12 -20 -18 15 -45 -14 -28 -31 15 -15 -4 -63 -28 -66 -11 -2 -34 -4 -51 -5
-28 -2 -30 -5 -25 -29 3 -16 1 -28 -4 -28 -6 0 -10 5 -10 12 0 6 -3 9 -6 6 -3
-3 0 -15 7 -27 15 -23 5 -41 -12 -24 -7 7 -11 35 -10 64 0 29 -4 59 -11 66 -6
8 -7 13 -2 12 19 -3 31 2 52 21 24 22 25 21 22 -27 -2 -38 -2 -38 36 -18 28
14 27 17 -6 19 -10 1 -15 11 -15 31 0 19 5 29 13 27 6 -1 12 3 12 9 0 6 -6 9
-14 6 -7 -3 -18 -1 -24 5 -8 8 -15 8 -25 -1 -8 -6 -22 -8 -32 -5 -13 5 -14 9
-3 16 10 8 10 9 -2 5 -20 -5 -26 -37 -7 -37 15 0 32 -29 22 -38 -3 -3 -5 0 -5
6 0 7 -7 12 -15 12 -8 0 -15 5 -15 11 0 6 -7 9 -15 5 -8 -3 -15 0 -15 6 0 7
-5 6 -15 -2 -8 -7 -15 -19 -15 -27 0 -13 3 -13 15 -3 12 10 15 10 15 -1 0 -18
-20 -49 -20 -31 0 6 -5 12 -11 12 -8 0 -8 -5 1 -15 18 -21 25 -19 37 13 l11
27 -4 -32 c-3 -26 -1 -31 11 -27 8 4 15 2 15 -3 0 -5 -13 -14 -30 -20 -18 -7
-30 -7 -30 -2 0 6 -5 7 -11 4 -7 -5 -3 -15 11 -30 18 -20 19 -23 5 -29 -9 -3
-14 -2 -12 2 3 4 -1 13 -9 19 -8 8 -15 9 -19 3 -3 -6 -1 -10 6 -10 8 0 6 -6
-4 -18 -21 -23 -22 -46 -2 -38 8 3 15 1 15 -4 0 -6 -6 -10 -14 -10 -8 0 -16
-4 -18 -9 -1 -5 -9 -3 -16 5 -7 8 -8 14 -2 14 5 0 10 7 10 15 0 17 -16 20 -25
5 -4 -6 -12 -4 -22 5 -8 9 -18 13 -21 10 -4 -3 0 -10 8 -15 8 -5 11 -13 6 -17
-4 -4 -14 0 -21 10 -15 21 -28 8 -14 -13 12 -21 11 -38 -2 -20 -8 12 -10 9 -6
-12 3 -19 0 -25 -10 -21 -7 3 -13 10 -13 17 0 6 -5 3 -11 -7 -6 -10 -8 -21 -5
-24 3 -4 6 -1 6 7 0 10 3 10 15 0 8 -7 15 -18 15 -24 0 -6 -4 -5 -9 3 -7 11
-10 10 -18 -4 -9 -16 -10 -16 -16 0 -4 9 -11 13 -17 10 -5 -3 -10 -1 -10 5 0
6 -4 8 -10 5 -5 -3 -10 -11 -10 -16 0 -6 4 -8 9 -4 5 3 12 1 16 -5 3 -5 -3
-10 -14 -10 -14 0 -19 -5 -14 -16 4 -10 13 -14 29 -10 12 3 26 1 29 -5 4 -6 0
-9 -11 -7 -11 2 -18 -2 -17 -9 2 -8 -4 -10 -14 -6 -12 5 -15 2 -10 -10 3 -9 2
-17 -3 -17 -19 0 1 -26 21 -27 16 -2 18 1 10 11 -9 10 -7 15 8 19 14 3 17 0
14 -14 -3 -11 -1 -19 4 -19 6 0 9 12 9 28 -2 29 10 52 27 52 6 0 2 -7 -9 -15
-17 -13 -18 -14 -1 -15 14 0 16 -4 7 -19 -13 -26 -13 -31 4 -31 9 0 16 12 18
33 2 23 8 32 21 31 9 -1 17 2 17 7 0 8 -15 13 -32 10 -5 0 -8 3 -8 9 0 5 4 10
8 10 4 0 16 13 25 30 10 16 21 29 25 29 20 -3 51 15 45 25 -4 6 1 4 11 -4 17
-13 16 -15 -14 -23 -23 -6 -29 -11 -22 -20 11 -13 16 -45 14 -91 -2 -26 -3
-28 -14 -13 -27 37 -81 23 -57 -14 6 -10 9 -10 9 -1 0 6 9 12 20 12 11 0 20
-7 20 -15 0 -19 26 -19 34 0 3 8 11 15 18 14 10 0 10 -2 1 -6 -16 -6 -17 -23
-2 -23 6 0 16 6 24 13 7 8 27 13 44 12 24 -1 31 2 31 16 0 11 -5 16 -13 13 -8
-3 -14 2 -14 11 0 12 6 15 24 10 13 -3 23 -1 23 5 0 5 -5 9 -11 8 -6 -2 -12 7
-14 20 -1 12 3 22 9 22 6 0 4 5 -4 10 -11 7 -7 10 18 10 34 0 41 13 18 36 -20
19 -30 18 -22 -3 4 -10 4 -14 0 -10 -4 4 -13 2 -21 -4 -14 -13 -17 4 -5 31 17
37 70 0 74 -51 1 -17 6 -33 11 -36 4 -3 1 -16 -7 -29 -20 -29 -20 -34 -1 -34
9 0 12 -6 8 -18 -3 -9 -3 -14 2 -10 4 4 8 18 9 30 1 19 7 23 34 25 19 1 39 8
45 17 13 16 75 25 94 13 7 -5 17 1 24 14 6 12 14 17 18 12 9 -14 40 -23 46
-13 3 4 -1 11 -7 13 -7 3 -3 6 10 6 12 1 22 7 22 16 0 21 -16 19 -40 -5 -21
-21 -26 -16 -10 10 6 10 4 20 -7 33 -15 16 -15 19 1 35 16 16 17 16 11 -10 -5
-20 -3 -27 12 -30 10 -3 26 2 36 11 16 13 19 13 27 1 5 -8 12 -12 15 -9 3 4
-3 17 -13 29 l-19 24 -12 -22 c-15 -27 -41 -30 -34 -3 7 27 -15 36 -37 16 -20
-18 -24 -64 -7 -76 5 -3 -1 -9 -13 -12 -12 -3 -19 -3 -16 0 3 3 1 14 -4 23 -7
13 -4 24 9 41 10 13 18 26 18 29 0 3 3 16 7 28 l8 24 19 -21 c11 -12 25 -21
31 -21 6 0 -1 11 -16 25 -27 25 -34 45 -15 45 5 0 8 -4 5 -9 -7 -11 22 -36 31
-28 3 4 1 13 -5 20 -7 8 -9 17 -5 20 3 4 -1 9 -10 13 -9 3 -13 12 -10 20 3 8
9 11 14 8 5 -3 9 0 9 7 0 7 -8 9 -21 6 -26 -7 -35 16 -21 49 11 22 9 25 -15
24 -5 -1 -7 -11 -5 -23 l3 -22 -20 23 c-19 22 -38 31 -26 12 4 -6 0 -22 -9
-35 -11 -17 -13 -26 -4 -31 7 -5 8 -3 3 5 -5 9 -1 12 11 10 11 -2 25 0 32 4 7
5 12 4 12 -2 0 -6 -4 -11 -9 -11 -5 0 -12 -12 -15 -26 -4 -15 -10 -24 -13 -20
-3 3 -12 -2 -19 -12 -12 -15 -13 -14 -14 11 0 15 -4 27 -9 27 -5 0 -8 -15 -6
-32 4 -30 3 -31 -10 -14 -7 10 -18 15 -23 12 -5 -3 -15 1 -22 9 -12 14 -7 20
14 16 5 -1 3 5 -4 14 -12 14 -11 18 1 26 8 5 16 9 19 9 3 0 5 23 5 50 0 28 0
50 0 50 0 0 -9 -7 -19 -15z"/>
<path d="M2198 424 c6 -11 7 -26 2 -33 -6 -10 -9 -8 -15 8 -6 19 -8 19 -21 6
-9 -8 -20 -12 -26 -9 -6 4 -5 10 3 15 10 6 5 9 -14 9 -20 0 -30 -6 -34 -19 -6
-23 -73 -46 -73 -25 0 17 3 16 -38 5 -18 -5 -32 -6 -32 -1 0 5 -12 2 -27 -6
-33 -17 -68 -20 -43 -4 11 7 12 10 2 10 -7 0 -21 -7 -30 -16 -10 -11 -17 -13
-20 -5 -4 13 -42 15 -42 2 0 -6 -8 -8 -17 -7 -24 5 -63 -11 -63 -24 0 -6 5 -8
12 -4 26 16 116 19 311 11 81 -3 152 -9 158 -13 7 -4 9 1 4 15 -5 16 -3 20 9
15 9 -3 16 -12 16 -19 0 -17 53 -30 58 -15 3 7 13 -5 23 -26 11 -22 17 -31 14
-21 -4 15 0 17 25 14 23 -4 29 -1 32 16 2 11 9 22 16 25 7 2 10 -2 6 -12 -4
-12 0 -16 15 -16 12 0 21 -4 21 -9 0 -6 -10 -8 -22 -6 -22 4 -22 4 -4 -10 16
-12 22 -12 28 -2 6 9 10 9 16 -1 7 -10 11 -10 22 3 8 10 9 15 1 15 -7 0 -7 7
1 25 6 14 18 24 26 23 8 -2 18 6 22 18 7 17 4 20 -16 20 -13 0 -24 -6 -24 -13
0 -11 -5 -11 -21 -3 -17 10 -21 8 -26 -9 -7 -27 -33 -27 -40 -1 -7 26 -23 26
-18 0 5 -28 -9 -33 -29 -11 -16 17 -20 18 -44 5 -15 -8 -36 -14 -48 -14 -17 0
-20 5 -16 29 3 22 -3 37 -23 58 -19 20 -24 22 -17 7z"/>
<path d="M3424 429 c-4 -7 1 -16 10 -21 12 -7 15 -16 10 -31 -9 -31 -11 -32
-31 -16 -9 8 -14 9 -10 3 4 -7 -1 -14 -13 -17 -10 -3 -21 0 -24 7 -2 6 -5 -1
-5 -15 -1 -15 -8 -32 -16 -39 -8 -7 -12 -16 -9 -21 3 -5 0 -9 -5 -9 -6 0 -10
-3 -9 -7 3 -16 -14 -43 -24 -37 -5 3 -12 -2 -14 -12 -3 -11 -16 -24 -30 -31
-22 -10 -25 -10 -20 4 7 16 -25 -13 -52 -49 -11 -14 -11 -16 2 -14 9 1 22 10
29 21 8 10 19 15 25 11 7 -4 12 -2 12 3 0 6 5 11 10 11 7 0 7 -7 0 -20 -6 -11
-15 -18 -21 -15 -5 4 -9 2 -9 -4 0 -5 5 -13 10 -16 6 -3 10 -11 10 -16 0 -6
-4 -8 -9 -5 -5 3 -11 -2 -13 -12 -4 -15 -1 -18 18 -14 13 2 22 8 19 12 -3 4
-2 21 1 37 4 22 11 29 27 28 26 -2 37 -43 15 -56 -10 -7 -9 -9 3 -9 24 0 40
23 29 40 -13 20 -12 33 1 24 8 -4 8 -1 1 13 -14 25 1 53 15 28 9 -15 11 -16
16 -1 4 9 2 16 -3 16 -5 0 -7 8 -3 17 5 15 3 16 -8 6 -19 -19 -38 -16 -35 5 2
9 12 17 22 17 10 0 25 4 32 8 6 5 16 6 20 3 15 -9 33 10 26 28 -5 14 -8 14
-18 2 -18 -23 -56 -30 -56 -11 0 9 5 13 10 10 6 -3 10 4 11 17 0 13 3 17 6 11
8 -21 26 -15 20 7 -4 16 0 20 19 20 27 0 48 37 38 65 -5 11 -2 13 10 9 9 -3
16 -17 16 -31 0 -13 4 -22 10 -18 5 3 6 13 3 22 -5 13 -2 15 11 10 14 -6 17
-3 12 10 -5 15 -4 15 9 -1 17 -23 20 -14 5 15 -9 15 -15 17 -30 9 -24 -13 -33
-13 -25 0 3 6 -5 10 -19 10 -14 0 -28 -5 -32 -11z"/>
<path d="M3219 396 c-1 -3 -2 -9 -3 -13 -3 -18 -18 -33 -26 -28 -5 3 -18 -3
-28 -13 -10 -10 -24 -16 -30 -14 -7 2 -10 -2 -6 -12 8 -21 -5 -20 -28 1 -25
23 -48 26 -40 5 4 -11 7 -12 10 -4 3 10 7 10 18 1 18 -15 18 -33 -1 -26 -8 4
-17 2 -20 -3 -4 -6 0 -10 7 -10 9 0 9 -3 2 -8 -6 -4 -14 -14 -17 -22 -3 -9 -6
-5 -6 10 -1 26 -41 63 -41 37 0 -8 -13 -13 -37 -12 -45 0 -73 -20 -53 -38 10
-9 11 -9 5 1 -5 10 -1 13 16 11 13 -2 30 0 36 4 9 6 11 3 7 -7 -3 -9 -1 -16 5
-16 6 0 11 5 11 11 0 5 5 7 10 4 6 -3 10 0 10 7 0 9 3 9 10 -2 14 -22 12 -27
-11 -33 -12 -3 -18 -10 -14 -16 3 -6 -1 -11 -10 -11 -9 0 -13 5 -10 10 9 15
-21 12 -34 -3 -6 -8 -7 -18 -3 -22 4 -5 2 -6 -3 -2 -6 3 -17 1 -25 -4 -12 -8
-12 -12 -2 -16 17 -7 15 -21 -5 -27 -11 -3 -18 -16 -18 -30 0 -15 5 -22 13
-19 6 3 12 0 12 -6 0 -6 4 -11 9 -11 5 0 7 8 4 18 -5 22 13 72 27 72 6 0 6 -7
-2 -20 -7 -10 -9 -23 -5 -27 11 -10 27 17 27 45 0 30 37 30 50 -1 9 -22 9 -22
9 -1 1 12 7 27 15 33 11 9 15 5 19 -19 6 -28 37 -44 37 -19 0 5 -4 8 -9 4 -5
-3 -12 -1 -16 5 -3 6 4 10 17 10 35 0 52 15 43 36 -7 17 -9 17 -12 3 -5 -22
-40 -31 -47 -13 -3 8 1 14 9 14 8 0 15 5 15 10 0 6 7 10 15 10 12 0 14 8 10
33 -3 20 -2 27 4 18 6 -10 10 -10 16 -1 4 7 1 16 -6 21 -11 7 -9 9 6 10 11 1
24 1 28 0 4 -1 10 6 13 14 12 30 26 15 20 -20 -5 -26 -4 -33 6 -30 17 7 20 58
5 67 -9 6 -9 12 0 27 8 13 9 22 3 26 -6 3 -11 4 -11 1z"/>
<path d="M3648 377 c-3 -14 0 -31 6 -37 8 -8 6 -9 -8 -4 -13 5 -17 4 -12 -4 4
-7 -7 -5 -29 4 -34 14 -36 14 -33 -3 2 -10 11 -17 19 -15 12 3 12 1 1 -10 -11
-11 -16 -10 -26 5 -7 9 -16 17 -18 17 -12 0 -17 -45 -6 -51 6 -4 8 -14 5 -23
-12 -31 -23 -15 -23 34 0 32 4 50 12 50 6 0 15 7 18 16 5 14 4 15 -8 5 -11 -9
-15 -9 -19 1 -4 8 -8 5 -12 -9 -4 -13 -12 -23 -17 -23 -13 0 -38 -26 -38 -40
0 -6 -4 -8 -10 -5 -11 7 -14 -8 -3 -18 3 -4 15 7 25 24 21 35 36 33 18 -1 -7
-12 -8 -20 -3 -17 5 3 15 1 23 -4 13 -8 13 -10 1 -18 -8 -5 -20 -7 -28 -4 -7
3 -13 0 -13 -6 0 -5 -10 -15 -22 -22 -18 -10 -20 -9 -15 5 4 9 2 16 -3 16 -6
0 -10 -7 -10 -16 0 -9 -10 -24 -21 -33 -19 -15 -20 -20 -9 -41 13 -23 13 -24
20 -5 4 11 6 23 4 26 -2 4 3 9 11 13 8 3 15 1 15 -4 0 -6 5 -10 11 -10 5 0 7
5 4 11 -8 13 24 51 36 43 5 -3 7 -10 4 -15 -4 -5 1 -9 9 -9 9 0 16 4 16 9 0
19 33 21 49 2 15 -17 25 -19 60 -12 2 1 -1 7 -6 14 -14 18 -16 90 -3 82 6 -4
22 -4 35 -1 19 5 23 11 20 40 -2 19 -8 42 -13 52 -8 14 -10 13 -14 -9z"/>
<path d="M6053 371 c-16 -15 -23 -17 -32 -8 -9 9 -11 8 -6 -5 4 -10 3 -18 -3
-18 -6 0 -12 5 -14 11 -2 7 -12 7 -31 0 -15 -6 -27 -7 -27 -1 0 13 -37 22 -60
15 -29 -9 -27 -50 3 -52 12 0 16 1 10 4 -18 7 -16 23 2 23 8 0 15 -5 15 -12 0
-6 3 -8 6 -5 4 4 1 14 -7 23 -13 16 -12 16 9 5 22 -12 31 -41 12 -41 -5 0 -10
-5 -10 -10 0 -7 6 -7 20 0 12 6 17 17 14 28 -5 15 -4 15 5 1 6 -9 9 -25 6 -37
-2 -11 3 -28 12 -39 14 -17 14 -17 9 1 -4 10 -2 24 4 31 8 9 7 17 -4 27 -8 9
-11 20 -6 27 6 11 9 10 16 0 5 -8 9 -20 11 -28 3 -21 23 -38 31 -26 4 6 13 10
20 9 6 -1 17 -2 23 -3 7 0 9 -14 7 -33 -5 -28 -4 -29 8 -13 8 10 15 17 16 14
21 -33 26 -51 22 -73 -2 -14 0 -26 6 -26 5 0 10 4 10 8 0 4 11 9 24 10 18 1
23 -3 21 -16 -2 -9 -4 -21 -4 -25 -1 -4 -11 -2 -23 4 -16 9 -23 9 -26 0 -8
-25 -19 -9 -18 29 1 22 -2 40 -6 40 -5 0 -8 -6 -8 -14 0 -21 -20 -30 -33 -17
-9 9 -8 11 6 6 13 -6 17 -2 17 14 0 18 -3 20 -18 12 -16 -9 -18 -6 -14 20 3
21 0 29 -11 29 -20 0 -41 -26 -27 -35 5 -3 10 -1 10 5 0 6 4 9 9 6 5 -3 7 -15
4 -26 -3 -12 2 -28 10 -38 12 -13 13 -21 6 -32 -9 -12 -10 -11 -5 4 5 14 2 17
-10 12 -8 -3 -20 -6 -25 -6 -5 0 -9 -8 -8 -17 0 -11 3 -13 6 -6 3 9 10 9 28
-3 20 -13 24 -13 32 -1 6 12 10 12 20 2 8 -9 5 -19 -14 -41 -14 -16 -23 -22
-22 -14 2 8 0 16 -4 17 -5 1 -14 9 -20 17 -8 10 -17 13 -26 7 -9 -6 -10 -11
-2 -15 6 -4 11 -12 11 -17 0 -6 -4 -7 -10 -4 -5 3 -10 1 -10 -4 0 -6 5 -11 11
-11 5 0 8 -4 5 -8 -3 -5 8 -8 25 -7 22 1 29 -2 24 -13 -4 -10 0 -12 11 -8 12
4 15 2 10 -9 -4 -12 2 -15 29 -15 34 0 46 12 25 25 -5 3 -10 2 -10 -4 0 -6 -7
-8 -15 -5 -10 4 -14 14 -10 28 2 11 2 15 -1 8 -6 -13 -24 -7 -24 7 0 12 41 22
54 13 18 -11 36 -11 36 0 0 5 12 7 30 3 20 -4 30 -3 30 5 0 7 7 10 16 6 8 -3
12 -2 9 4 -3 6 -2 10 2 10 14 0 33 -23 33 -39 0 -14 -1 -14 -10 -1 -8 13 -10
12 -10 -4 0 -13 5 -16 16 -12 9 4 22 2 28 -3 8 -7 21 -5 39 4 l27 14 -15 -30
c-17 -31 -12 -38 11 -15 8 8 13 29 12 45 l-2 31 -23 -22 c-21 -20 -23 -20 -48
-4 -14 9 -23 21 -20 26 10 16 -32 31 -58 21 -29 -11 -118 -11 -111 1 3 4 16 8
29 8 13 0 31 7 39 16 15 14 17 14 22 0 7 -18 34 -22 34 -6 0 6 -7 13 -15 16
-8 4 -15 16 -15 28 0 18 3 17 19 -10 23 -37 44 -54 34 -27 -4 10 -14 23 -22
30 -14 10 -14 14 -2 25 12 11 13 11 6 -1 -6 -11 -4 -11 10 -4 10 6 26 8 35 6
10 -3 21 0 24 6 7 11 36 4 36 -10 0 -5 -8 -9 -17 -9 -26 -1 -53 -24 -52 -46 0
-18 1 -18 9 1 5 11 9 14 9 7 1 -7 6 -10 12 -6 7 4 20 -4 30 -17 10 -13 19 -19
19 -12 0 6 -4 15 -10 18 -5 3 -10 15 -10 26 0 10 5 19 10 19 6 0 10 -4 10 -10
0 -5 5 -10 11 -10 6 0 7 5 2 13 -12 19 -12 37 -1 37 6 0 6 6 -2 15 -7 8 -10
25 -6 39 3 14 0 28 -8 35 -11 9 -15 7 -19 -8 -3 -11 0 -22 7 -25 6 -2 3 -5 -6
-5 -9 -1 -21 -9 -27 -18 -6 -12 -23 -17 -56 -18 -28 -1 -50 -7 -55 -16 -7 -10
-12 -11 -21 -2 -23 23 9 38 98 46 34 3 58 17 30 17 -9 0 -17 4 -17 9 0 4 -10
7 -22 6 -14 -1 -16 0 -5 2 12 3 16 10 13 20 -3 8 -6 17 -6 19 0 2 -6 4 -14 4
-8 0 -21 9 -29 21 -9 13 -17 16 -22 10 -3 -6 -1 -11 4 -11 6 0 11 -7 11 -15 0
-8 6 -15 14 -15 8 0 18 -5 22 -12 4 -7 3 -8 -4 -4 -17 11 -53 -16 -41 -30 7
-9 4 -14 -13 -19 -13 -4 -33 -19 -45 -34 l-22 -26 6 25 c3 14 10 30 15 37 5 7
5 14 -2 18 -9 6 -14 -1 -11 -17 3 -20 -27 -5 -42 22 -10 17 -25 31 -33 31 -8
1 -18 3 -24 4 -5 1 -14 3 -20 4 -20 2 -10 32 14 40 13 5 26 17 29 25 9 22 -5
20 -30 -3z"/>
<path d="M2355 249 c-4 -11 -9 -18 -12 -15 -9 8 -31 -18 -25 -29 15 -24 11
-43 -11 -49 -30 -7 -235 -28 -317 -31 -139 -6 -224 -16 -237 -26 -7 -7 -13
-31 -13 -55 0 -42 1 -44 30 -44 17 0 30 4 30 10 0 23 66 42 191 55 19 2 75 11
125 20 90 16 92 16 133 -5 25 -14 38 -26 34 -33 -4 -7 -8 -20 -8 -29 -2 -26
61 -25 75 1 11 21 48 18 57 -5 6 -15 65 -16 75 0 5 8 8 7 8 -1 0 -16 26 -17
36 -1 5 7 2 8 -7 3 -8 -5 -11 -5 -7 0 4 4 0 14 -8 22 -13 13 -12 17 6 33 12
11 18 24 14 34 -3 9 -1 16 5 16 6 0 11 7 11 15 0 8 5 15 10 15 6 0 10 4 10 9
0 5 -9 7 -21 4 -12 -3 -18 -11 -15 -19 3 -8 1 -14 -4 -14 -5 0 -12 17 -16 37
-6 31 -8 34 -15 18 -11 -28 -11 -37 1 -30 6 3 10 0 10 -8 0 -7 -7 -14 -15 -14
-8 0 -15 4 -15 9 0 5 -4 6 -10 3 -5 -3 -10 -1 -10 4 0 6 4 11 10 11 5 0 9 11
8 25 -2 20 -6 23 -26 18 -18 -4 -24 -1 -29 17 -4 16 -8 18 -14 8 -7 -10 -9
-10 -9 0 0 6 -7 12 -15 12 -9 0 -12 6 -9 15 4 8 4 15 1 15 -3 0 -9 -9 -12 -21z"/>
<path d="M1428 247 c-37 -7 -48 -13 -48 -28 0 -12 -10 -21 -27 -25 -42 -10
-45 -14 -26 -32 9 -9 18 -16 20 -14 3 2 13 -8 24 -23 12 -14 26 -22 32 -18 7
4 8 0 3 -12 -7 -18 -6 -18 14 0 18 16 20 17 14 2 -5 -13 -2 -16 12 -10 11 4
15 3 11 -4 -4 -6 0 -19 9 -27 21 -21 6 -21 -18 1 -23 21 -31 13 -19 -18 5 -13
10 -19 11 -14 1 6 5 2 9 -8 6 -17 8 -17 34 3 27 21 38 15 15 -8 -9 -9 -8 -12
5 -12 9 0 18 6 19 13 0 6 2 17 2 22 1 6 5 16 10 23 4 7 8 55 10 108 l2 95 -36
-3 c-19 -1 -56 -6 -82 -11z"/>
<path d="M2678 210 c-4 -27 -2 -50 4 -58 7 -7 7 -16 2 -20 -5 -4 -8 -6 -7 -3
1 2 -2 12 -8 22 -9 18 -11 18 -37 -6 -15 -14 -30 -25 -34 -25 -5 0 -8 -9 -8
-19 0 -23 -30 -56 -39 -44 -9 13 -34 10 -38 -4 -3 -7 2 -16 11 -19 9 -3 16
-12 16 -20 0 -9 11 -14 30 -14 17 0 30 5 30 13 0 8 4 7 10 -3 9 -13 12 -13 25
3 7 11 11 26 8 35 -4 10 -2 13 5 8 6 -3 13 -2 17 4 10 16 28 11 21 -6 -4 -12
-2 -15 9 -10 8 3 15 1 15 -4 0 -5 -11 -12 -25 -16 -14 -3 -25 -10 -25 -15 0
-6 9 -5 20 1 11 6 20 7 20 2 0 -5 6 -9 13 -9 17 0 16 39 -1 50 -11 7 -10 12 3
28 16 17 20 17 51 4 30 -12 34 -12 34 1 0 8 -7 17 -15 20 -13 5 -13 9 -3 22
11 13 10 14 -9 3 -20 -10 -22 -9 -16 5 5 14 1 16 -20 12 -22 -4 -25 -3 -16 9
9 11 7 18 -9 36 -11 12 -22 31 -24 42 -2 11 -7 1 -10 -25z"/>
<path d="M5524 197 c4 -12 -2 -25 -16 -37 -29 -23 -45 -14 -22 11 20 22 12 39
-8 18 -17 -18 -41 -72 -29 -64 5 3 12 1 16 -5 3 -5 1 -10 -4 -10 -6 0 -11 -5
-11 -11 0 -6 8 -8 19 -4 25 8 33 -7 22 -39 -8 -20 -7 -24 4 -20 7 3 15 -2 18
-13 4 -16 5 -16 6 0 0 9 6 17 11 17 6 0 10 5 10 11 0 5 -4 8 -9 5 -5 -3 -11 1
-15 9 -3 8 0 17 6 21 6 4 9 3 6 -2 -3 -5 3 -17 14 -26 17 -17 19 -17 37 1 14
14 21 16 25 8 5 -9 7 -9 12 1 3 6 10 10 15 6 5 -3 9 4 9 15 0 12 4 21 10 21 5
0 7 -6 4 -14 -5 -14 10 -29 33 -32 6 -1 9 4 6 11 -2 8 -12 11 -20 8 -13 -5
-13 -3 -4 15 7 12 16 22 21 22 6 0 10 7 10 15 0 10 9 14 25 13 14 -1 25 -8 25
-15 0 -7 5 -13 10 -13 6 0 10 9 10 20 0 11 -7 20 -15 20 -9 0 -12 6 -8 16 5
14 3 15 -14 6 -11 -6 -23 -9 -26 -5 -9 9 -34 -21 -29 -35 3 -10 -4 -12 -29 -7
-19 4 -42 6 -52 6 -15 0 -16 2 -2 15 17 18 20 40 5 49 -5 3 -7 0 -4 -8 3 -8 1
-18 -4 -21 -5 -3 -12 3 -15 14 -6 22 -37 28 -37 8 0 -9 -4 -8 -11 2 -9 12 -10
12 -5 -3z"/>
<path d="M3470 181 c0 -5 6 -11 13 -14 8 -3 5 -12 -11 -28 -19 -20 -24 -22
-32 -9 -8 12 -10 12 -10 1 0 -8 -7 -11 -19 -8 -20 5 -51 -9 -51 -23 0 -6 11
-5 27 1 l27 10 -27 -25 c-27 -25 -63 -42 -83 -38 -6 1 -17 -5 -25 -14 -11 -13
-10 -17 2 -25 23 -15 52 -11 45 6 -7 19 1 19 20 0 21 -20 44 -19 46 3 2 32 4
37 11 50 11 17 37 15 37 -3 0 -8 -4 -15 -8 -15 -5 0 -14 -11 -20 -25 -10 -21
-9 -25 3 -25 8 0 15 5 15 10 0 6 5 10 11 10 5 0 7 -4 4 -10 -3 -5 2 -10 11
-10 16 0 16 1 1 18 -10 11 -14 26 -10 41 4 14 1 26 -8 32 -11 7 -10 9 4 9 11
0 18 -8 19 -22 0 -13 2 -27 2 -33 2 -16 16 -35 27 -35 12 0 12 37 -1 45 -8 5
-7 11 1 21 10 12 10 15 -2 12 -8 -2 -14 3 -13 10 3 37 5 42 18 42 7 0 21 -11
30 -25 20 -31 4 -33 -17 -2 -13 17 -16 18 -16 6 -1 -9 6 -20 15 -23 8 -3 13
-10 10 -15 -11 -16 30 0 57 23 26 23 26 24 8 40 -18 16 -19 16 -28 -9 l-8 -26
-24 24 -23 25 31 7 c17 4 31 10 31 15 0 11 -33 7 -42 -5 -5 -7 -14 -6 -28 3
-11 7 -20 8 -20 3z"/>
</g>
</svg>
